<?xml version="1.0" encoding="utf-8"?>
<!-- Generator: Adobe Illustrator 27.2.0, SVG Export Plug-In . SVG Version: 6.00 Build 0)  -->
<svg version="1.1" id="Layer_1" xmlns="http://www.w3.org/2000/svg" xmlns:xlink="http://www.w3.org/1999/xlink" x="0px" y="0px"
	 viewBox="0 0 32 32" style="enable-background:new 0 0 32 32;" xml:space="preserve">
<style type="text/css">
	.st0{fill:#65A30D;}
	.st1{fill:#FFFFFF;}
</style>
<rect class="st0" width="32" height="32"/>
<path class="st1" d="M24.6,16c-1.1-0.9-2.5-1.4-4-1.4h-9.4c-1.8,0-3.2-1.3-3.3-3.1c0,0,0-0.1,0-0.1c0-0.2,0-0.3,0-0.5
	c0.3-1.6,1.7-2.7,3.3-2.7h9.2c1.6,0,2.9,1.1,3.1,2.7h3c-0.3-3.2-2.9-5.7-6.1-5.7h-3.2V0.6h-2.5v4.6h-3.6c-3.2,0-5.9,2.5-6.1,5.7
	c0,0.2,0,0.3,0,0.5c0,3.4,2.7,6.1,6.1,6.1h9.5c1.8,0,3.2,1.3,3.3,3.1c0,0,0,0.1,0,0.1c0,0.2,0,0.5,0,0.7c-0.3,1.4-1.6,2.5-3.1,2.5
	h-9.4c-1.5,0-2.8-1-3.1-2.5h-3c0.4,3.1,3,5.5,6.1,5.5h3.3v4.5h2.5v-4.5h3.4c3.1,0,5.8-2.3,6.1-5.5v-0.7C26.9,18.9,26,17.2,24.6,16"
	/>
</svg>
